<?xml version="1.0" encoding="UTF-8"?>
<svg xmlns="http://www.w3.org/2000/svg" xmlns:xlink="http://www.w3.org/1999/xlink" viewBox="0 0 48 48" version="1.1" width="48px" height="48px">
<g id="surface1">
<path style=" fill:#304FFE;" d="M 32 42 L 16 42 C 10.484375 42 6 37.515625 6 32 L 6 16 C 6 10.484375 10.484375 6 16 6 L 32 6 C 37.515625 6 42 10.484375 42 16 L 42 32 C 42 37.515625 37.515625 42 32 42 Z "/>
<path style=" fill:#304FFE;fill-opacity:0.290196;" d="M 6 16 L 6 32 C 6 37.515625 10.484375 42 16 42 L 32 42 C 37.515625 42 42 37.515625 42 32 L 42 16 C 42 15.039063 41.855469 14.109375 41.601563 13.230469 C 35.953125 8.710938 28.796875 6 21 6 C 17.261719 6 13.675781 6.628906 10.328125 7.773438 C 7.714844 9.582031 6 12.59375 6 16 Z "/>
<path style=" fill:#6200EA;" d="M 21 8 C 16.042969 8 11.363281 9.167969 7.210938 11.238281 C 6.4375 12.652344 6 14.277344 6 16 L 6 32 C 6 37.515625 10.484375 42 16 42 L 32 42 C 37.515625 42 42 37.515625 42 32 L 42 16.203125 C 36.476563 11.113281 29.101563 8 21 8 Z "/>
<path style=" fill:#673AB7;" d="M 42 19.011719 C 36.71875 13.464844 29.265625 10 21 10 C 15.589844 10 10.527344 11.484375 6.191406 14.066406 C 6.066406 14.691406 6 15.339844 6 16 L 6 32 C 6 37.515625 10.484375 42 16 42 L 32 42 C 37.515625 42 42 37.515625 42 32 Z "/>
<path style=" fill:#8E24AA;" d="M 42 22.035156 C 37.050781 15.914063 29.484375 12 21 12 C 15.449219 12 10.289063 13.675781 6 16.550781 L 6 32 C 6 37.515625 10.484375 42 16 42 L 32 42 C 37.515625 42 42 37.515625 42 32 Z "/>
<path style=" fill:#C2185B;" d="M 42 32 L 42 25.441406 C 37.546875 18.558594 29.808594 14 21 14 C 15.371094 14 10.179688 15.859375 6 19 L 6 32 C 6 37.515625 10.484375 42 16 42 L 32 42 C 37.515625 42 42 37.515625 42 32 Z "/>
<path style=" fill:#D81B60;" d="M 42 32 L 42 29.621094 C 38.410156 21.597656 30.359375 16 21 16 C 15.265625 16 10.027344 18.101563 6 21.570313 L 6 32 C 6 37.515625 10.484375 42 16 42 L 32 42 C 37.515625 42 42 37.515625 42 32 Z "/>
<path style=" fill:#F50057;" d="M 41.585938 34.835938 C 39.652344 25.234375 31.171875 18 21 18 C 15.121094 18 9.8125 20.421875 6 24.316406 L 6 32 C 6 37.515625 10.484375 42 16 42 L 32 42 C 36.527344 42 40.355469 38.972656 41.585938 34.835938 Z "/>
<path style=" fill:#FF1744;" d="M 39.949219 38.039063 C 39.449219 27.996094 31.167969 20 21 20 C 14.894531 20 9.476563 22.890625 6 27.367188 L 6 32 C 6 37.515625 10.484375 42 16 42 L 32 42 C 35.242188 42 38.121094 40.441406 39.949219 38.039063 Z "/>
<path style=" fill:#FF5722;" d="M 21 22 C 14.503906 22 8.859375 25.648438 6 31.003906 L 6 32 C 6 37.515625 10.484375 42 16 42 L 32 42 C 34.230469 42 36.285156 41.257813 37.949219 40.019531 C 37.96875 39.679688 38 39.34375 38 39 C 38 29.609375 30.390625 22 21 22 Z "/>
<path style=" fill:#FF6F00;" d="M 21 24 C 14.046875 24 8.21875 28.734375 6.515625 35.152344 C 7.839844 39.125 11.589844 42 16 42 L 32 42 C 33.351563 42 34.636719 41.726563 35.816406 41.238281 C 35.925781 40.507813 36 39.761719 36 39 C 36 30.714844 29.285156 24 21 24 Z "/>
<path style=" fill:#FF9800;" d="M 21 26 C 14.144531 26 8.542969 31.308594 8.050781 38.039063 C 9.878906 40.441406 12.757813 42 16 42 L 32 42 C 32.574219 42 33.132813 41.941406 33.675781 41.847656 C 33.882813 40.929688 34 39.980469 34 39 C 34 31.820313 28.179688 26 21 26 Z "/>
<path style=" fill:#FFC107;" d="M 31.574219 42 C 31.847656 41.046875 32 40.039063 32 39 C 32 32.925781 27.074219 28 21 28 C 14.925781 28 10 32.925781 10 39 C 10 39.34375 10.019531 39.683594 10.050781 40.019531 C 11.714844 41.257813 13.769531 42 16 42 Z "/>
<path style=" fill:#FFD54F;" d="M 21 30 C 16.027344 30 12 34.027344 12 39 C 12 39.789063 12.113281 40.554688 12.304688 41.28125 C 13.449219 41.742188 14.695313 42 16 42 L 29.476563 42 C 29.808594 41.058594 30 40.054688 30 39 C 30 34.027344 25.972656 30 21 30 Z "/>
<path style=" fill:#FFE082;" d="M 21 32.085938 C 17.132813 32.085938 14 35.21875 14 39.085938 C 14 40.082031 14.210938 41.03125 14.589844 41.890625 C 15.050781 41.953125 15.519531 42 16 42 L 27.359375 42 C 27.765625 41.113281 28 40.125 28 39.085938 C 28 35.21875 24.867188 32.085938 21 32.085938 Z "/>
<path style=" fill:#FFECB3;" d="M 21 34.085938 C 18.238281 34.085938 16 36.324219 16 39.085938 C 16 40.175781 16.359375 41.179688 16.953125 42 L 25.046875 42 C 25.640625 41.179688 26 40.175781 26 39.085938 C 26 36.324219 23.761719 34.085938 21 34.085938 Z "/>
<path style="fill:none;stroke-width:2;stroke-linecap:butt;stroke-linejoin:miter;stroke:#FFFFFF;stroke-opacity:1;stroke-miterlimit:10;" d="M 18 37 L 30 37 C 33.867188 37 37 33.867188 37 30 L 37 18 C 37 14.132813 33.867188 11 30 11 L 18 11 C 14.132813 11 11 14.132813 11 18 L 11 30 C 11 33.867188 14.132813 37 18 37 Z "/>
<path style="fill:none;stroke-width:2;stroke-linecap:butt;stroke-linejoin:miter;stroke:#FFFFFF;stroke-opacity:1;stroke-miterlimit:10;" d="M 30 24 C 30 27.3125 27.3125 30 24 30 C 20.6875 30 18 27.3125 18 24 C 18 20.6875 20.6875 18 24 18 C 27.3125 18 30 20.6875 30 24 Z "/>
<path style=" fill:#FFFFFF;" d="M 32 16 C 32 16.550781 31.550781 17 31 17 C 30.449219 17 30 16.550781 30 16 C 30 15.449219 30.449219 15 31 15 C 31.550781 15 32 15.449219 32 16 Z "/>
</g>
</svg>
